<svg width="48" height="48" viewBox="0 0 84 25" fill="none" xmlns="http://www.w3.org/2000/svg">
<g clip-path="url(#clip0_11211_177)">
<path d="M15.2724 0.859894C15.6456 1.04525 16.0652 1.57755 16.347 1.8923C18.7639 4.59225 20.0317 8.03105 19.8074 11.6509C19.5904 15.1538 17.8604 18.2642 15.2639 20.563C14.7722 20.2269 14.3223 19.7485 13.929 19.3038C11.7232 16.8091 10.5141 13.3041 10.7248 9.97885C10.942 6.55047 12.6945 3.12 15.2724 0.859894Z" fill="#0D0B0A"/>
<path d="M25.5582 5.76266C25.5653 5.77479 25.5735 5.78644 25.5797 5.7991C25.7172 6.07921 25.757 6.52363 25.7919 6.83453C25.9736 8.45131 25.8232 10.0723 25.2546 11.6031C23.834 15.4276 20.5503 18.2428 16.9197 19.9117C16.8769 19.9112 16.9056 19.9146 16.8403 19.8766C17.0622 19.5137 17.3716 19.1893 17.6276 18.8483C18.0191 18.3158 18.3739 17.7576 18.6894 17.1774C19.8015 15.1309 20.3334 12.8803 20.3317 10.5592C20.3313 9.90003 20.3162 9.24156 20.1254 8.60535C20.4659 8.22747 20.8831 7.90897 21.2881 7.60251C22.5932 6.61483 23.9082 5.92747 25.5582 5.76266Z" fill="#0D0B0A"/>
<path d="M4.94035 5.77867C5.13628 5.78622 5.33396 5.81165 5.52774 5.84113C7.01914 6.06804 8.32405 6.86223 9.48911 7.78137C9.81427 8.0379 10.17 8.30539 10.4149 8.6425C9.79542 11.825 10.617 15.162 12.2626 17.9144C12.5254 18.3519 12.8093 18.7762 13.1134 19.1863C13.2585 19.3817 13.4313 19.559 13.5615 19.7641L13.5154 19.824C10.8021 18.6636 8.26028 16.6103 6.62513 14.1561C4.9097 11.5811 4.34247 8.80739 4.94035 5.77867Z" fill="#0D0B0A"/>
<path d="M28.2125 12.8808C28.6451 12.8291 29.6147 12.7746 29.9773 13.0055C29.9956 13.06 30.0011 13.0654 30.003 13.1317C30.0102 13.3855 29.8444 13.7654 29.7584 14.0022C29.183 15.6361 28.1978 17.0951 26.8972 18.2394C24.3513 20.4905 21.0513 21.2981 17.7185 21.0838C17.089 21.018 16.44 20.9742 15.835 20.7813C18.6273 19.9224 21.2835 18.1678 23.208 15.9766C23.6811 15.4378 24.0279 14.8123 24.4882 14.2706C25.3618 13.2422 26.9459 12.9704 28.2125 12.8808Z" fill="#0D0B0A"/>
<path d="M1.53684 12.966C2.8381 12.8126 4.6038 13.0269 5.67562 13.837C6.31285 14.3188 6.69686 15.2132 7.22352 15.8221C8.87045 17.7293 10.9332 19.2331 13.2528 20.2176C13.7467 20.4291 14.2552 20.6497 14.7775 20.7783L13.7335 20.9528C10.6933 21.3902 7.54279 20.847 4.94149 19.1557C3.17004 18.0036 1.92275 16.4238 1.18945 14.4533C1.0818 14.1644 0.920648 13.8507 0.8656 13.5496C0.833449 13.3738 0.861752 13.2578 0.96449 13.1087C1.12802 12.9884 1.34062 12.9899 1.53684 12.966Z" fill="#0D0B0A"/>

<path d="M15.4292 20.9844C15.9581 21.1725 16.4903 21.323 17.0452 21.4131C18.001 21.568 19.1115 21.5227 19.9703 22.0206C20.6045 22.3884 21.2539 23.2496 21.4332 23.9638C21.466 24.0948 21.4565 24.1056 21.3894 24.2142C20.7256 24.4534 20.081 24.3964 19.4205 24.1801C17.8296 23.6598 16.2079 22.5004 15.4292 20.9844Z" fill="#0D0B0A"/>
<path d="M15.1299 20.9883C15.1635 20.9854 15.1957 21.0029 15.2281 21.0122C15.2265 21.0273 15.2268 21.0429 15.2232 21.058C15.1415 21.3965 13.8317 22.7771 13.5293 23.0163C12.4842 23.8415 10.9325 24.4967 9.58431 24.3355C9.54826 24.3277 9.49818 24.3179 9.46535 24.3028C9.39277 24.2692 9.34678 24.2424 9.32764 24.164C9.27653 23.9531 9.39642 23.7085 9.49229 23.5253C9.80114 22.9349 10.2848 22.2422 10.8907 21.9231C11.6375 21.5305 12.7403 21.532 13.5703 21.3843C14.102 21.2898 14.6144 21.1456 15.1299 20.9883Z" fill="#0D0B0A"/>
</g>
<defs>
<clipPath id="clip0_11211_177">
<rect width="83.147" height="23.5097" fill="white" transform="translate(0.853027 0.859894)"/>
</clipPath>
</defs>
</svg>
